<svg width="15" height="15" viewBox="0 0 15 15" fill="none" xmlns="http://www.w3.org/2000/svg">
<path d="M14.9698 11.2304V13.4885C14.9707 13.6981 14.9277 13.9056 14.8437 14.0977C14.7598 14.2898 14.6366 14.4622 14.4821 14.6039C14.3277 14.7456 14.1453 14.8535 13.9467 14.9207C13.7481 14.9878 13.5377 15.0128 13.3289 14.9939C11.0127 14.7422 8.78788 13.9508 6.83311 12.6831C5.01446 11.5274 3.47255 9.98554 2.3169 8.16689C1.04482 6.20324 0.253179 3.96756 0.00610946 1.64096C-0.0127002 1.43282 0.0120369 1.22303 0.0787455 1.02497C0.145454 0.826907 0.252673 0.644904 0.393575 0.490549C0.534477 0.336194 0.705975 0.212869 0.897151 0.128425C1.08833 0.0439815 1.29499 0.000269792 1.50399 7.29762e-05H3.76209C4.12738 -0.00352226 4.48152 0.125833 4.75849 0.364029C5.03546 0.602224 5.21637 0.933007 5.26749 1.29472C5.3628 2.01736 5.53956 2.72691 5.79439 3.40981C5.89566 3.67922 5.91757 3.97202 5.85754 4.2535C5.79751 4.53498 5.65804 4.79336 5.45567 4.99801L4.49974 5.95394C5.57125 7.83837 7.13153 9.39864 9.01595 10.4702L9.97188 9.51422C10.1765 9.31185 10.4349 9.17238 10.7164 9.11235C10.9979 9.05232 11.2907 9.07423 11.5601 9.17551C12.243 9.43033 12.9525 9.60709 13.6752 9.7024C14.0408 9.75398 14.3747 9.93815 14.6134 10.2199C14.8521 10.5016 14.979 10.8612 14.9698 11.2304Z" fill="#D8A956"/>
</svg>
